# xmcd CD database file
#
# Track frame offsets:
#	150
#	12978
#	27023
#	39067
#	52386
#	65508
#	79777
#	95240
#	107876
#	122519
#	137426
#	148488
#
# Disc length: 2238 seconds
#
# Revision: 1
# Processed by: cddbd v1.5.2PL0 Copyright (c) Steve Scherf et al.
# Submitted via: CDex 1.70beta2
#
DISCID=a708bc0c
DTITLE=Club Boheme - Club Boheme
DYEAR=2010
DGENRE=Jazz
TTITLE0=Drop the Charge
TTITLE1=ByeBye Blackbird
TTITLE2=Rhythm Bone
TTITLE3=Swing 39
TTITLE4=You Turned the Tables On Me
TTITLE5=Don't Wait Too Long
TTITLE6=It's Hard To Be Good Without You
TTITLE7=Swing Gitane
TTITLE8=Sweetheart
TTITLE9=Night and Day
TTITLE10=Waltz Boheme
TTITLE11=My Foolish Heart
EXTD=YEAR: 2010
EXTT0=
EXTT1=
EXTT2=
EXTT3=
EXTT4=
EXTT5=
EXTT6=
EXTT7=
EXTT8=
EXTT9=
EXTT10=
EXTT11=
PLAYORDER=
